<svg xmlns="http://www.w3.org/2000/svg" xmlns:xlink="http://www.w3.org/1999/xlink" version="1.1" x="0px" y="0px" viewBox="0 0 160 200" style="enable-background:new 0 0 160 160;" xml:space="preserve"><g><path d="M155,83.612c0-9.33-4.625-17.89-11.816-22.434c3.816-8.62,2.541-19.373-3.859-26.544c-3.855-4.32-8.966-6.764-14.447-6.937   c-1.102-9.412-8.878-16.543-18.031-16.396c-1.945,0.037-4.178,0.206-6.324,0.902c-2.269-5.086-7.138-7.312-11.578-7.128   C85.668,5.206,82.377,6.635,80,9.238c-2.377-2.603-5.668-4.032-8.946-4.163c-4.419-0.18-9.299,2.044-11.574,7.129   c-2.146-0.697-4.381-0.865-6.327-0.902c-9.15-0.203-16.928,6.982-18.03,16.396c-5.482,0.174-10.592,2.617-14.447,6.937   c-6.4,7.171-7.675,17.924-3.859,26.544C9.626,65.721,5,74.281,5,83.612c0,9.254,4.554,17.746,11.645,22.318   c-1.753,3.95-2.277,8.309-1.462,12.746c1.845,10.035,10.414,17.364,20.005,17.808c1.289,9.136,8.376,15.887,16.945,15.887   c2.819,0,6.18-0.24,9.113-1.717c2.435,2.917,5.967,4.283,9.314,4.283c0.166,0,0.332-0.003,0.496-0.01   c3.278-0.132,6.568-1.561,8.945-4.164c2.377,2.603,5.667,4.032,8.946,4.164c0.165,0.007,0.33,0.01,0.496,0.01   c3.347,0,6.879-1.366,9.314-4.282c2.933,1.477,6.294,1.717,9.113,1.717c8.571,0,15.66-6.755,16.945-15.896   c9.514-0.531,17.984-7.831,19.817-17.799c0.809-4.401,0.3-8.725-1.419-12.649C150.386,101.478,155,92.929,155,83.612z    M70.773,147.932c-2.461,0.081-5.211-1.351-5.562-5.71c-0.155-1.926-1.847-3.35-3.77-3.207c-1.927,0.154-3.363,1.843-3.208,3.77   c0.04,0.494,0.102,0.969,0.177,1.43c-1.68,1.001-4.179,1.156-6.28,1.156c-4.919,0-9.166-4.225-10.008-9.773   c5.62-1.744,9.673-5.781,11.32-11.435c0.541-1.855-0.525-3.798-2.381-4.339c-1.857-0.538-3.799,0.525-4.339,2.382   c-1.485,5.097-5.584,6.721-8.763,7.186c-7.231,1.058-14.505-4.43-15.893-11.981c-0.657-3.575-0.024-7.082,1.764-10.148   c0.418-0.352,0.764-0.803,0.986-1.344c0.03-0.073,0.041-0.149,0.066-0.223c0.265-0.349,0.529-0.699,0.827-1.033   c1.287-1.441,1.161-3.654-0.281-4.941c-1.442-1.286-3.655-1.162-4.942,0.281c-0.017,0.019-0.032,0.039-0.049,0.058   C15.303,96.771,12,90.497,12,83.612c0-6.941,3.354-13.265,8.561-16.532c0.04,0.046,0.074,0.096,0.114,0.142l2.733,3.063   c0.691,0.774,1.65,1.169,2.612,1.169c0.83,0,1.662-0.293,2.33-0.889c1.442-1.287,1.568-3.5,0.281-4.942l-2.733-3.063   c-0.495-0.554-0.931-1.148-1.34-1.757c-0.045-0.074-0.091-0.146-0.141-0.215c-4.173-6.428-3.691-15.497,1.481-21.292   c2.656-2.976,6.154-4.614,9.85-4.614s7.194,1.639,9.85,4.614c1.287,1.443,3.5,1.569,4.942,0.281c1.442-1.287,1.568-3.5,0.281-4.941   c-2.484-2.784-5.49-4.79-8.78-5.912c0.588-5.896,5.268-10.425,10.785-10.425c0.064,0,0.129,0.001,0.193,0.002   c2.414,0.047,4.062,0.333,5.205,0.93v1.331c0,1.933,1.567,3.5,3.5,3.5s3.5-1.567,3.5-3.5v-2.877c0.384-4.284,3.113-5.72,5.55-5.615   c2.851,0.114,5.727,2.265,5.727,6.81v3.267c0,5.287-3.945,9.588-8.795,9.588c-1.933,0-3.5,1.567-3.5,3.5s1.567,3.5,3.5,3.5   c3.253,0,6.279-1.04,8.795-2.818v16.399c-2.516-1.778-5.541-2.818-8.795-2.818c-3.134,0-6.05,0.975-8.509,2.635   c-0.034,0.018-0.064,0.044-0.098,0.063c-0.084,0.057-0.172,0.109-0.255,0.168c-0.082,0.056-0.169,0.099-0.247,0.163   c-2.822,2.298-6.306,3.285-9.801,2.792c-3.522-0.5-6.662-2.446-8.842-5.482c-1.127-1.571-3.315-1.93-4.885-0.801   c-1.57,1.128-1.928,3.314-0.801,4.885c3.305,4.601,8.115,7.559,13.544,8.328c0.928,0.132,1.854,0.197,2.774,0.197   c0.583,0,1.163-0.029,1.74-0.081c-0.263,1.198-0.415,2.441-0.415,3.722c0,1.933,1.567,3.5,3.5,3.5s3.5-1.567,3.5-3.5   c0-5.287,3.945-9.588,8.795-9.588c4.85,0,8.795,4.301,8.795,9.588v58.288v7.119v9.631C76.5,145.667,73.624,147.817,70.773,147.932z    M139.326,100.002c-1.288-1.443-3.5-1.567-4.942-0.281c-1.442,1.287-1.568,3.5-0.281,4.941c0.473,0.53,0.891,1.087,1.281,1.656   c0.044,0.077,0.092,0.149,0.14,0.221c2.132,3.231,2.932,7.01,2.222,10.87c-1.388,7.552-8.669,13.04-15.894,11.981   c-2.602-0.381-7.199-1.82-8.762-7.186c-0.541-1.855-2.48-2.918-4.339-2.382c-1.856,0.541-2.922,2.483-2.381,4.339   c1.665,5.714,5.786,9.778,11.5,11.492c-0.862,5.52-5.099,9.716-10.001,9.716c-2.1,0-4.6-0.154-6.28-1.156   c0.076-0.462,0.138-0.936,0.177-1.43c0.155-1.927-1.281-3.615-3.208-3.77c-1.913-0.145-3.614,1.281-3.77,3.207   c-0.351,4.36-3.096,5.793-5.562,5.71c-2.851-0.115-5.727-2.265-5.727-6.81v-9.631v-7.119V66.084c0-5.287,3.945-9.588,8.795-9.588   s8.795,4.301,8.795,9.588c0,1.933,1.567,3.5,3.5,3.5s3.5-1.567,3.5-3.5c0-1.281-0.152-2.523-0.415-3.722   c0.577,0.052,1.157,0.081,1.74,0.081c0.92,0,1.846-0.065,2.774-0.197c5.429-0.77,10.239-3.728,13.544-8.328   c1.127-1.57,0.769-3.757-0.801-4.885c-1.569-1.128-3.756-0.77-4.885,0.801c-2.181,3.035-5.321,4.982-8.843,5.482   c-3.5,0.493-6.979-0.494-9.801-2.792c-0.079-0.064-0.166-0.108-0.249-0.164c-0.085-0.06-0.174-0.113-0.26-0.171   c-0.031-0.017-0.059-0.042-0.091-0.058c-2.459-1.66-5.376-2.636-8.51-2.636c-3.253,0-6.279,1.04-8.795,2.818V35.915   c2.516,1.778,5.541,2.818,8.795,2.818c1.933,0,3.5-1.567,3.5-3.5s-1.567-3.5-3.5-3.5c-4.85,0-8.795-4.301-8.795-9.588v-3.267   c0-4.545,2.876-6.695,5.728-6.81c2.461-0.074,5.167,1.332,5.55,5.614v2.877c0,1.933,1.567,3.5,3.5,3.5s3.5-1.567,3.5-3.5v-1.331   c1.143-0.597,2.791-0.883,5.204-0.93c5.57-0.1,10.383,4.458,10.978,10.423c-3.29,1.122-6.296,3.128-8.781,5.912   c-1.287,1.441-1.161,3.654,0.281,4.941c1.443,1.288,3.655,1.162,4.942-0.281c2.656-2.976,6.154-4.614,9.851-4.614   c3.696,0,7.194,1.639,9.85,4.614c5.17,5.794,5.654,14.859,1.485,21.287c-0.053,0.073-0.101,0.149-0.149,0.227   c-0.408,0.607-0.843,1.198-1.336,1.751l-2.733,3.063c-1.287,1.442-1.162,3.655,0.281,4.942c0.667,0.596,1.5,0.889,2.33,0.889   c0.962,0,1.921-0.395,2.612-1.169l2.733-3.063c0.041-0.045,0.074-0.096,0.114-0.141c5.207,3.267,8.56,9.591,8.56,16.532   c0,6.939-3.353,13.262-8.557,16.529C139.403,100.095,139.366,100.048,139.326,100.002z"/><path d="M128.791,82.84c-1.907,1.377-4.146,1.935-6.307,1.564c-1.514-0.257-2.866-0.957-3.941-2.006   c0.229-0.453,0.44-0.916,0.628-1.388c0.395-0.994,0.698-2.033,0.901-3.088c0.365-1.897-0.877-3.732-2.775-4.098   c-1.896-0.364-3.733,0.877-4.099,2.775c-0.12,0.624-0.299,1.239-0.533,1.826c-0.228,0.573-0.509,1.125-0.835,1.641   c-0.322,0.506-0.69,0.982-1.097,1.415c-0.403,0.429-0.846,0.817-1.31,1.152c-0.47,0.337-0.969,0.626-1.485,0.857   c-0.522,0.235-1.065,0.415-1.618,0.535c-1.124,0.243-2.333,0.246-3.466-0.001c-0.549-0.119-1.092-0.299-1.614-0.534   c-0.516-0.232-1.015-0.521-1.481-0.855c-0.468-0.337-0.91-0.726-1.313-1.154c-0.405-0.432-0.774-0.907-1.096-1.415   c-0.328-0.517-0.609-1.068-0.836-1.641c-0.233-0.588-0.413-1.201-0.532-1.824c-0.365-1.898-2.201-3.145-4.097-2.778   c-1.898,0.364-3.142,2.198-2.778,4.097c0.203,1.055,0.505,2.094,0.901,3.09c0.389,0.978,0.87,1.922,1.432,2.807   c0.558,0.88,1.199,1.707,1.906,2.458c0.711,0.757,1.494,1.444,2.328,2.045c0.847,0.608,1.753,1.131,2.693,1.555   c0.967,0.436,1.978,0.77,2.998,0.99c1.052,0.23,2.137,0.347,3.225,0.347s2.173-0.116,3.221-0.346   c1.025-0.223,2.035-0.556,3.001-0.991c0.939-0.422,1.846-0.945,2.698-1.557c0.209-0.151,0.405-0.323,0.607-0.484   c2.004,1.799,4.46,3.009,7.197,3.472c0.831,0.142,1.665,0.211,2.496,0.211c3.195,0,6.348-1.03,9.077-2.999   c1.567-1.132,1.921-3.319,0.791-4.887C132.546,82.064,130.357,81.711,128.791,82.84z"/><path d="M122.83,109.584c-0.018-0.031-0.037-0.062-0.056-0.093c-4.089-6.59-11.68-9.58-18.893-7.432   c-0.041,0.012-0.08,0.03-0.121,0.043c-0.509,0.171-1.034,0.295-1.563,0.361c-0.573,0.071-1.158,0.083-1.742,0.027   c-0.582-0.052-1.158-0.167-1.713-0.341c-0.542-0.171-1.071-0.399-1.574-0.683c-0.498-0.279-0.975-0.613-1.418-0.993   c-1.466-1.261-3.676-1.091-4.936,0.375c-1.259,1.467-1.091,3.677,0.376,4.936c0.792,0.681,1.651,1.282,2.552,1.788   c0.455,0.255,0.924,0.486,1.401,0.693c-3.204,4.32-4.515,10.112-3.029,15.769c0.413,1.572,1.831,2.612,3.383,2.612   c0.294,0,0.594-0.037,0.892-0.116c1.87-0.49,2.987-2.404,2.496-4.273c-1.533-5.835,1.604-11.887,6.992-13.489   c4.131-1.229,8.513,0.527,10.922,4.371l3.061,5.292c0.968,1.673,3.11,2.246,4.782,1.276c1.673-0.968,2.245-3.108,1.277-4.782   L122.83,109.584z"/><path d="M68.117,73.825c-1.896-0.364-3.733,0.877-4.099,2.775c-0.121,0.626-0.299,1.24-0.531,1.824   c-0.229,0.575-0.51,1.128-0.837,1.643c-0.322,0.506-0.69,0.982-1.097,1.415c-0.403,0.429-0.846,0.817-1.31,1.152   c-0.47,0.337-0.97,0.626-1.483,0.857c-0.523,0.235-1.066,0.415-1.619,0.535c-1.124,0.243-2.333,0.246-3.466-0.001   c-0.549-0.119-1.092-0.299-1.614-0.534c-0.515-0.231-1.014-0.521-1.481-0.855c-0.467-0.336-0.909-0.725-1.313-1.154   c-0.405-0.432-0.774-0.907-1.096-1.415c-0.328-0.517-0.609-1.068-0.836-1.641c-0.233-0.588-0.413-1.201-0.532-1.824   c-0.365-1.898-2.203-3.145-4.097-2.778c-1.898,0.364-3.142,2.198-2.778,4.097c0.203,1.055,0.505,2.094,0.901,3.09   c0.188,0.472,0.399,0.935,0.629,1.389c-1.075,1.049-2.427,1.75-3.942,2.007c-2.161,0.365-4.399-0.189-6.305-1.565   c-1.569-1.129-3.755-0.776-4.886,0.791s-0.777,3.755,0.791,4.887c2.73,1.969,5.882,2.999,9.077,2.999   c0.831,0,1.665-0.069,2.494-0.21c2.738-0.464,5.194-1.674,7.199-3.473c0.204,0.162,0.401,0.335,0.611,0.486   c0.848,0.609,1.754,1.132,2.692,1.555c0.967,0.436,1.977,0.769,2.998,0.99c1.052,0.23,2.137,0.347,3.225,0.347   s2.173-0.116,3.221-0.346c1.024-0.222,2.034-0.556,3.002-0.991c0.938-0.423,1.845-0.945,2.696-1.557   c0.833-0.6,1.615-1.287,2.325-2.043c0.708-0.752,1.349-1.579,1.906-2.458c0.56-0.882,1.042-1.825,1.432-2.807   c0.394-0.993,0.697-2.031,0.9-3.088C71.258,76.025,70.015,74.19,68.117,73.825z"/><path d="M64.25,100.475c-0.443,0.38-0.92,0.714-1.419,0.994c-0.501,0.281-1.031,0.511-1.574,0.682   c-0.554,0.174-1.13,0.289-1.716,0.342c-0.58,0.054-1.164,0.043-1.737-0.028c-0.529-0.067-1.054-0.19-1.563-0.361   c-0.041-0.013-0.079-0.031-0.121-0.043c-7.213-2.149-14.804,0.841-18.893,7.432c-0.019,0.031-0.038,0.062-0.056,0.093l-3.09,5.342   c-0.968,1.674-0.396,3.814,1.277,4.782c1.672,0.967,3.814,0.396,4.782-1.276l3.061-5.292c2.409-3.843,6.792-5.598,10.921-4.371   c5.388,1.603,8.525,7.654,6.993,13.489c-0.491,1.869,0.627,3.783,2.497,4.274c0.298,0.078,0.597,0.115,0.891,0.115   c1.552,0,2.97-1.04,3.383-2.612c1.485-5.657,0.174-11.449-3.029-15.768c0.478-0.207,0.946-0.439,1.401-0.694   c0.9-0.506,1.759-1.107,2.552-1.788c1.467-1.259,1.635-3.469,0.376-4.936C67.925,99.384,65.715,99.214,64.25,100.475z"/></g><text x="0" y="175" fill="#000000" font-size="5px" font-weight="bold" font-family="'Helvetica Neue', Helvetica, Arial-Unicode, Arial, Sans-serif">Created by Symbolon</text><text x="0" y="180" fill="#000000" font-size="5px" font-weight="bold" font-family="'Helvetica Neue', Helvetica, Arial-Unicode, Arial, Sans-serif">from the Noun Project</text></svg>