<?xml version="1.0" standalone="no"?>
<!DOCTYPE svg PUBLIC "-//W3C//DTD SVG 1.1//EN"
  "http://www.w3.org/Graphics/SVG/1.1/DTD/svg11.dtd">
<svg width="74mm" height="72mm" viewBox="-33.25 -46.75 74 72" xmlns="http://www.w3.org/2000/svg" version="1.1">
	<title>svgOutput</title>
	<desc>made with tinkercad</desc>
<path d="M 20.25 19.56100082397461 L 11.809000015258789 23.05699920654297 L 2.75 24.25 L 0 23.887845993041992 L -5.493109226226807 23.164445877075195 L -6.309000015258789 23.05699920654297 L -13.990948677062988 19.875375747680664 L -14.75 19.56100082397461 L -21.34552574157715 14.500396728515625 L -21.999000549316406 13.99899959564209 L -27.56100082397461 6.75 L -30.356639862060547 4.440892164675075e-17 L -30.742412567138672 -0.9314363598823547 L -31.05699920654297 -1.690999984741211 L -32.14272689819336 -9.935412406921387 L -32.25 -10.75 L -31.164445877075195 -18.99310874938965 L -31.05699920654297 -19.80900001525879 L -27.875375747680664 -27.490949630737305 L -27.56100082397461 -28.25 L -22.500396728515625 -34.845523834228516 L -21.999000549316406 -35.499000549316406 L -15.402114868164062 -40.560646057128906 L -14.75 -41.06100082397461 L -6.309000015258789 -44.55699920654297 L 0 -45.387847900390625 L 1.9354126453399658 -45.64272689819336 L 2.75 -45.75 L 10.993109703063965 -44.66444778442383 L 11.809000015258789 -44.55699920654297 L 19.490949630737305 -41.37537384033203 L 20.25 -41.06100082397461 L 27.499000549316406 -35.499000549316406 L 29.594436645507812 -32.768001556396484 L 32.560646057128906 -28.902114868164062 L 33.06100082397461 -28.25 L 34.24800109863281 -25.38401985168457 L 36.24241256713867 -20.56856346130371 L 36.55699920654297 -19.80900001525879 L 37.058616638183594 -16 L 37.75 -16 L 39.75 -16 L 39.75 -14 L 39.75 -7.5 L 39.75 -5.5 L 37.75 -5.5 L 37.058616638183594 -5.5 L 36.55699920654297 -1.690999984741211 L 35.85663986206055 4.440892164675075e-17 L 33.37537384033203 5.990948677062988 L 33.06100082397461 6.75 L 28.000396728515625 13.345524787902832 L 27.499000549316406 13.99899959564209 L 20.902114868164062 19.060646057128906 L 20.25 19.56100082397461 M 27.75 -7.5 L 34.5222053527832 -7.5 L 34.75 -9.230583190917969 L 34.75 -12.269416809082031 L 34.5222053527832 -14 L 27.75 -14 L 27.75 -16 L 32.67991256713867 -21.9158935546875 L 30.63599967956543 -26.850000381469727 L 27.75 -30.611331939697266 L 26.09522819519043 -32.768001556396484 L 25.518999099731445 -33.51900100708008 L 18.850000381469727 -38.63600158691406 L 11.083999633789062 -41.85300064086914 L 2.75 -42.95000076293945 L -5.433422605610229e-14 -42.58802032470703 L -5.584000110626221 -41.85300064086914 L -13.350000381469727 -38.63600158691406 L -20.018999099731445 -33.51900100708008 L -25.13599967956543 -26.850000381469727 L -28.35300064086914 -19.083999633789062 L -29.450000762939453 -10.75 L -28.35300064086914 -2.4159998893737793 L -27.352191925048828 4.440892164675075e-17 L -25.13599967956543 5.349999904632568 L -20.018999099731445 12.019000053405762 L -13.350000381469727 17.13599967956543 L -5.584000110626221 20.35300064086914 L 0 21.0880184173584 L 2.75 21.450000762939453 L 11.083999633789062 20.35300064086914 L 18.850000381469727 17.13599967956543 L 25.518999099731445 12.019000053405762 L 30.63599967956543 5.349999904632568 L 32.67991256713867 0.41589409112930303 L 32.33333206176758 4.440892164675075e-17 L 27.75 -5.5 L 27.75 -7.5 z" fill="none" stroke="rgb(0,0,255)" stroke-width="0.01mm" />
</svg>
